<svg xmlns="http://www.w3.org/2000/svg" width="900" height="220" viewBox="0 0 900 220" role="img" aria-label="페이지 캐시 개념도">
  <rect x="12" y="12" width="876" height="196" fill="#ffffff" rx="8" stroke="#e6eefc"/>
  <!-- On-disk -->
  <rect x="32" y="36" width="240" height="84" rx="6" fill="#fff7e6" stroke="#ffdca8"/>
  <text x="46" y="66" font-size="14" fill="#0b1220" font-family="Arial, Helvetica, sans-serif">디스크 페이지 (On-disk pages)</text>
  <text x="46" y="86" font-size="12" fill="#475569" font-family="Arial, Helvetica, sans-serif">영구 저장</text>

  <!-- Page cache -->
  <rect x="330" y="36" width="240" height="84" rx="6" fill="#eef6ff" stroke="#cfe5ff"/>
  <text x="344" y="62" font-size="14" fill="#0b1220" font-family="Arial, Helvetica, sans-serif">페이지 캐시 (Page cache / Buffer pool)</text>
  <text x="344" y="82" font-size="12" fill="#475569" font-family="Arial, Helvetica, sans-serif">메모리에서 읽기/수정</text>

  <!-- Dirty -->
  <rect x="644" y="36" width="212" height="84" rx="6" fill="#fff0f6" stroke="#ffb3c6"/>
  <text x="656" y="62" font-size="14" fill="#0b1220" font-family="Arial, Helvetica, sans-serif">Dirty 페이지 (수정됨)</text>
  <text x="656" y="82" font-size="12" fill="#475569" font-family="Arial, Helvetica, sans-serif">디스크에 플러시 필요</text>

  <!-- arrows -->
  <defs>
    <marker id="arrow" markerWidth="10" markerHeight="10" refX="6" refY="5" orient="auto">
      <path d="M0,0 L0,10 L10,5 z" fill="#0b1220" />
    </marker>
  </defs>
  <path d="M274 78 L330 78" stroke="#0b74de" stroke-width="3" marker-end="url(#arrow)"/>
  <text x="290" y="70" font-size="11" fill="#0b74de" font-family="Arial, Helvetica, sans-serif">page-in</text>

  <path d="M570 120 L644 120" stroke="#16a34a" stroke-width="3" marker-end="url(#arrow)"/>
  <text x="520" y="112" font-size="11" fill="#16a34a" font-family="Arial, Helvetica, sans-serif">flush (checkpoint)</text>

  <!-- Legend -->
  <g font-family="Arial, Helvetica, sans-serif" font-size="12" fill="#0b1220">
    <rect x="34" y="130" width="16" height="12" fill="#fff7e6" stroke="#ffdca8" rx="2"/>
    <text x="56" y="141" fill="#475569">디스크 페이지 (영구 저장)</text>
    <rect x="34" y="150" width="16" height="12" fill="#eef6ff" stroke="#cfe5ff" rx="2"/>
    <text x="56" y="161" fill="#475569">페이지 캐시 (메모리)</text>
    <rect x="34" y="170" width="16" height="12" fill="#fff0f6" stroke="#ffb3c6" rx="2"/>
    <text x="56" y="181" fill="#475569">Dirty (수정되어 플러시 필요)</text>
    <text x="360" y="141" font-size="11" fill="#6b7280">파란 화살표: page-in</text>
    <text x="520" y="161" font-size="11" fill="#6b7280">녹색 화살표: flush (checkpoint)</text>
  </g>
</svg>
